<?xml version="1.0" encoding="UTF-8"?>
<svg id="_Слой_2" data-name="Слой 2" xmlns="http://www.w3.org/2000/svg" width="46.3" height="46.3" viewBox="0 0 46.3 46.3">
  <defs>
    <style>
      .cls-1 {
        fill: #333;
      }
    </style>
  </defs>
  <g id="dark-mode">
    <path id="dark-mode-2" data-name="dark-mode" class="cls-1" d="m23.15,0C10.36,0,0,10.36,0,23.15s10.36,23.15,23.15,23.15,23.15-10.36,23.15-23.15S35.94,0,23.15,0Zm0,37.4c-7.87,0-14.25-6.38-14.25-14.25,0-6.25,4.03-11.55,9.64-13.47-1,1.96-1.58,4.17-1.58,6.51,0,7.9,6.41,14.31,14.31,14.31,1.57,0,3.08-.26,4.49-.73-2.38,4.53-7.13,7.62-12.61,7.62Z"/>
  </g>
</svg>