<?xml version="1.0" encoding="UTF-8"?>
<svg id="_Слой_2" data-name="Слой 2" xmlns="http://www.w3.org/2000/svg" width="59" height="60.39" viewBox="0 0 59 60.39">
  <defs>
    <style>
      .cls-1 {
        fill: #333;
      }
    </style>
  </defs>
  <g id="white-mode">
    <g id="white-mode-2" data-name="white-mode">
      <circle class="cls-1" cx="29.5" cy="30.2" r="14.37"/>
      <g>
        <line class="cls-1" x1="29.5" y1="11.25" x2="29.5" y2="1.74"/>
        <path class="cls-1" d="m29.5,13c-.96,0-1.74-.78-1.74-1.74V1.74c0-.96.78-1.74,1.74-1.74s1.74.78,1.74,1.74v9.51c0,.96-.78,1.74-1.74,1.74Z"/>
      </g>
      <path class="cls-1" d="m57.26,31.94h-9.51c-.96,0-1.74-.78-1.74-1.74s.78-1.74,1.74-1.74h9.51c.96,0,1.74.78,1.74,1.74s-.78,1.74-1.74,1.74Z"/>
      <g>
        <line class="cls-1" x1="42.86" y1="16.83" x2="49.59" y2="10.11"/>
        <path class="cls-1" d="m42.86,18.57c-.45,0-.89-.17-1.23-.51-.68-.68-.68-1.78,0-2.46l6.73-6.73c.68-.68,1.78-.68,2.46,0,.68.68.68,1.78,0,2.46l-6.73,6.73c-.34.34-.79.51-1.23.51Z"/>
      </g>
      <g>
        <line class="cls-1" x1="11.26" y1="30.2" x2="1.74" y2="30.2"/>
        <path class="cls-1" d="m11.26,31.94H1.74c-.96,0-1.74-.78-1.74-1.74s.78-1.74,1.74-1.74h9.51c.96,0,1.74.78,1.74,1.74s-.78,1.74-1.74,1.74Z"/>
      </g>
      <g>
        <line class="cls-1" x1="16.13" y1="16.83" x2="9.41" y2="10.11"/>
        <path class="cls-1" d="m16.13,18.57c-.45,0-.89-.17-1.23-.51l-6.73-6.73c-.68-.68-.68-1.78,0-2.46.68-.68,1.78-.68,2.46,0l6.73,6.73c.68.68.68,1.78,0,2.46-.34.34-.79.51-1.23.51Z"/>
      </g>
      <g>
        <line class="cls-1" x1="29.5" y1="49.14" x2="29.5" y2="58.65"/>
        <path class="cls-1" d="m29.5,60.39c-.96,0-1.74-.78-1.74-1.74v-9.51c0-.96.78-1.74,1.74-1.74s1.74.78,1.74,1.74v9.51c0,.96-.78,1.74-1.74,1.74Z"/>
      </g>
      <g>
        <line class="cls-1" x1="42.86" y1="43.56" x2="49.59" y2="50.29"/>
        <path class="cls-1" d="m49.59,52.03c-.45,0-.89-.17-1.23-.51l-6.73-6.73c-.68-.68-.68-1.78,0-2.46.68-.68,1.78-.68,2.46,0l6.73,6.73c.68.68.68,1.78,0,2.46-.34.34-.79.51-1.23.51Z"/>
      </g>
      <g>
        <line class="cls-1" x1="16.13" y1="43.56" x2="9.41" y2="50.29"/>
        <path class="cls-1" d="m9.41,52.03c-.45,0-.89-.17-1.23-.51-.68-.68-.68-1.78,0-2.46l6.73-6.73c.68-.68,1.78-.68,2.46,0,.68.68.68,1.78,0,2.46l-6.73,6.73c-.34.34-.79.51-1.23.51Z"/>
      </g>
    </g>
  </g>
</svg>