<?xml version="1.0" encoding="iso-8859-1"?>
<!-- Uploaded to: SVG Repo, www.svgrepo.com, Generator: SVG Repo Mixer Tools -->
<svg fill="#000000" height="800px" width="800px" version="1.1" id="Layer_1" xmlns="http://www.w3.org/2000/svg" xmlns:xlink="http://www.w3.org/1999/xlink" 
	 viewBox="0 0 512 512" xml:space="preserve">
<g>
	<g>
		<polygon points="286.784,403.673 286.784,512 395.111,403.673 		"/>
	</g>
</g>
<g>
	<g>
		<path d="M262.031,117.197l23.275,4.568l13.235-43.845l3.24-3.056c30.018-28.319,62.407-51.242,93.33-66.279V0H11.757v512h241.635
			V370.282H395.11V264.476c-64.858,40.297-138.734,47.11-161.704,48.259l-51.869,51.869l-23.611-23.611l51.222-51.222
			c-0.997-25.432,0.053-105.001,46.571-164.501L262.031,117.197z"/>
	</g>
</g>
<g>
	<g>
		<path d="M492.164,30.369c-10.665-10.665-33.316-10.813-62.142-0.404c-32.376,11.689-68.498,35.119-102.098,66.175l-19.383,64.214
			l-32.441-6.368c-22.301,32.972-30.081,72.617-32.59,101.425l104.457-104.456l23.611,23.611l-99.989,99.988
			c40.633-7.229,100.195-24.831,143.012-67.647c4.462-4.462,8.851-9.049,13.114-13.706l-12.792-30.944l59.951-32.477
			C500.54,85.377,507.534,45.743,492.164,30.369z"/>
	</g>
</g>
</svg>